<svg version="1" xmlns="http://www.w3.org/2000/svg" width="2448" height="2448" viewBox="0 0 1836.000000 1836.000000"><path d="M267.6 479.9c-.4.5-1.4 1-2.4 1-5.2.1-11.2.7-11.8 1.3-.4.4-1.5.3-2.5-.2-1-.6-2-.6-2.3-.1-.3.5-2.2.7-4.1.5-1.9-.1-3.5 0-3.5.4s-2 .6-4.5.5c-2.5 0-4.7.3-5 .8-.3.4-1.6.4-2.8 0-1.2-.5-3.3-.4-4.6.1-1.4.5-3 .7-3.7.4-.7-.3-1.5 0-1.8.7-.3.8-.5.9-.5.1-.1-.8-1.2-.9-3.6-.4-1.9.4-3.5.6-3.5.3s-.6 0-1.4.6c-1 .8-1.6.9-2.1.1-.3-.5-1.1-1-1.6-1-.6 0-.8.3-.6.7.3.5-1.4.9-3.6.9-6.7.2-13.3 1-14.4 1.7-.6.4-2.8.9-4.9 1.2-4.7.6-7.6 1-12.9 2-2.2.4-5.6.8-7.7.9-2 0-3.4.4-3.2.8.3.4-.5.7-1.8.7s-3.6.2-5.3.6c-1.6.3-3.9.8-5 1-1.1.2-4.9 1.2-8.5 2.1-3.6.9-7.1 1.6-7.7 1.7-.7 0-1.3.5-1.3 1 0 .6-.3.8-.6.4-.3-.3-2.6 0-5 .8-2.4.7-4.4 1.2-4.4 1 0-.2-2 .3-4.4 1-2.4.8-4.7 1.1-5 .8-.3-.4-.6-.1-.6.5s-.7.9-1.5.6c-.8-.4-1.5-.1-1.5.7 0 .7-.3 1-.6.6-.3-.3-2.3.1-4.4.8-2.1.7-4.1 1.1-4.4.8-.3-.4-.6-.1-.6.5s-.7.9-1.5.6c-.8-.4-1.5-.2-1.5.3s-2.9 1.8-6.5 2.8c-3.6 1.1-6.5 2.4-6.5 2.8 0 .5-.4.6-.9.3s-2.6.2-4.7 1.1c-2.2.9-4.3 1.8-4.9 1.9-3.2.7-4 1-4.5 1.5-.8.9-9.5 4.9-10.7 4.9-.6 0-1.6.7-2.3 1.5-.7.8-1.6 1.3-2 1-.4-.2-1.8.4-3 1.5-1.3 1.1-2.7 2-3.2 2-1.8 0-2.3.3-3.6 2.1-.7 1.1-2 1.9-2.8 1.9-.8 0-1.4.4-1.4.9s-.8 1.2-1.7 1.5c-1 .3-3.2 1.9-5 3.6-1.8 1.6-3.7 3-4.2 3-.6 0-1 .3-.9.7.1.5-1.8 2.9-4.3 5.5-6 6.3-6.9 7.5-6.2 8.2.4.3.2.6-.4.6-.6 0-1.6 1.3-2.3 3-.7 1.6-1.6 3-2.1 3s-.8.3-.7.7c.1.5-.4 2.1-1 3.6-.7 1.6-1.2 3.4-1.2 4.2 0 .8-.4 1.6-1 2-.5.3-.7 1.2-.3 2 .3.8.1 1.5-.3 1.5-.8 0-1.2 4.2-1.8 19.5-.1 3.3-.5 6.6-1 7.3-.4.7-.2 1.2.4 1.2.8 0 .9.6.4 1.7C1.4 611 1.1 753 2.1 753c.5 0 .4 1.1-.1 2.5-.6 1.5-.6 2.5 0 2.5.9 0 .6 3.2-.6 5.2-.4.6-.3.9.2.5.9-.5 1.5 9.8 1.7 28 0 4 .4 7.3.9 7.3.4 0 .8.5.8 1.1 0 .5-.4.8-.9.5-.5-.4-.6.9-.1 2.9.5 2.1.4 3.5-.2 3.5-.5 0-.6.5-.2 1.2.4.6.9 5.9 1 11.7.2 5.8.6 11.1.8 11.8.3.6 0 1.4-.7 1.7-.9.3-.8.5.1.5.9.1 1 .6.3 2-.6 1-.7 2.1-.4 2.5.8.8.8 1.1 1.8 27.6.4 10.2.8 21.3 1 24.8.1 3.4.5 6.5.8 6.9.4.3.2 1.4-.4 2.4-.7 1.3-.6 1.9.1 1.9.8 0 .8.6 0 2-.6 1.1-.7 2-.2 2 .5 0 .9.7.9 1.5s-.5 1.5-1.1 1.5c-.6 0-.5.5.2 1.2 1.6 1.6 1.5 3.1 0 2.2-1-.6-1-.5-.1.7.7.9 1.2 3.6 1 6.2-.1 2.6.2 4.7.7 4.7.6 0 .5.5-.1 1.1-.6.6-.8 2.2-.4 3.8.4 1.4.6 5.6.6 9.3 0 3.8.3 6.8.8 6.8s.4.6-.2 1.3c-.6.8-.8 1.7-.5 2 .3.3.7 5.7.9 12 .1 6.3.5 11.9.9 12.5.3.6 0 1.3-.6 1.5-1 .4-1 .6 0 .6.7.1 1 .6.7 1.1-.4.6-.2 1.7.5 2.5.8.9.8 1.5 0 2-.6.3-.7 1.2-.3 1.8 1.3 2.1 1.2 8.8-.1 8-.6-.4-.6-.1.2.9.6.8 1.4 3.9 1.7 6.9.2 3 .7 8.5 1 12.4.4 3.8.8 9 1 11.5.2 2.5.4 4.5.5 4.5.1 0 .4 1.8.5 4 .7 8.2 1.4 16.2 2 22 .4 3.3.9 8.2 1.1 11 .6 7.3 1.3 15.3 1.9 21 .3 2.7.8 8.4 1.1 12.5.6 9.2.8 10.2 1.7 11.7.5.7.4 1.3-.2 1.3-.7 0-.7.9-.3 2.2.5 1.3.8 3 .7 3.8-.1.8.1 1.9.3 2.4.3.5.5 3.5.6 6.7.1 3.1.4 6 .8 6.4.3.4.2 2-.2 3.6-.5 1.7-.5 2.7 0 2.4.5-.3.9.3.9 1.2.1 7.7.6 12.3 1.3 12.3.5 0 .4.8-.1 1.9-.6 1-.7 2.1-.4 2.5.4.3.8 2.4.9 4.6.1 2.2.5 5.2.8 6.6.5 1.8.3 2.4-.5 1.9-.8-.6-.8-.2 0 1.4 1.1 1.9 1.9 9.5 2.4 21.8.1 2.4.5 4.3.8 4.3.3 0 .6.6.6 1.2.4 6.9 1.2 12.8 1.7 13.7.4.6.5 1.5.1 2-.3.5-.1 1.2.5 1.6.5.3 1 1.1 1 1.6 0 .6-.6.7-1.2.3-.9-.5-.9-.2.1.9.7.9 1 1.7.6 1.7s-.3.6.1 1.2c.5.7.9 2.8.9 4.5 0 1.8.3 3.3.8 3.3.4 0 .5.5.2 1-.4.6-.2 3.3.5 5.9.6 2.7 1.2 5.5 1.3 6.2.2.8.7 2 1.1 2.8.7 1.1.6 1.2-.5.6-1.1-.7-1.2-.6-.2.6 1.1 1.4 2.5 6.9 2.4 10.1 0 1 .4 2 .8 2.3.5.2.7 1.6.6 3-.2 1.4 0 2.5.5 2.5s.7.8.5 1.7c-.1 1 .2 2.6.7 3.6 1 1.9 1.9 5.3 2 7.4.1.7.4 1.3.8 1.3s.7.6.8 1.2c.3 4.6 5.2 16.7 8 20 .8 1 1.2 1.8.8 1.8-.4 0 1 1.8 3.1 4.1 4.2 4.5 11.9 8.7 17.1 9.1.6.1 1.2.5 1.2 1s.5.6 1 .3c.6-.3 1-.2 1 .4 0 .6.7.8 1.5.5.8-.3 2-.2 2.7.2.7.5 1.8.9 2.3 1 .6.1 2.6.5 4.5.9s5.1.9 7 1.1c1.9.1 3.7.4 4 .5.3.1.8.1 1.2 0 .5 0 .8.2.8.6 0 .5 1.1.8 2.5.8s2.5-.5 2.5-1c0-.6.4-.4.8.3.8 1.2 6.4 1.7 27.7 2.6 3.9.1 7.6.5 8.2.9.5.3 1.3.4 1.6 0 .4-.3 3.9-.6 7.9-.7 4-.1 7.8-.4 8.5-.9.6-.4 1.5-.2 1.9.4.4.8.9.7 1.5-.2.5-.8.9-.9.9-.3 0 .6 1.9.9 4.8.7 2.6-.2 10.6-.5 17.8-.7 7.1-.1 13.5-.6 14.2-1 .7-.4 1.2-.4 1.2.1 0 .4 2.3.6 5.1.4 3.5-.2 4.7-.6 3.8-1.2-.8-.5-.9-.9-.3-.9.6 0 1.4.3 1.8.7 1 1 8.6 1 8.6 0 0-.4.8-.4 1.8 0 1.9.9 4.2 1 5.7.2.6-.3 5.6-.5 11.2-.4 5.7 0 10.3-.2 10.3-.5s4.2-.5 9.3-.5c5 .1 9.8-.3 10.5-.8.8-.6 1.2-.5 1.2.3 0 .9.3 1 1.3.1 1-.8 1.7-.7 2.5.1.7.7 1.2.8 1.2.2 0-.5 4.9-1.1 11.3-1.3 19.3-.5 21.2-.6 22.6-1.5 1.1-.7 1.2-.6.6.5-.8 1.2-.6 1.2.8 0 1.1-.8 1.7-.9 1.7-.2s.8.8 2.5.1c1.8-.7 2.5-.6 2.5.3 0 .9.3.8.9-.1.4-.8 1.1-1.3 1.5-1.3.3.1 3.1.1 6.2.1 3.8 0 5.3-.3 4.8-1.1s-.2-.9 1.2-.1c1 .5 2.7.7 3.8.3 1.2-.4 3.8-.7 5.9-.6 2 0 3.7-.2 3.7-.6 0-.3 1.8-.5 4-.4 2.2.1 4-.1 4-.5 0-.3 1.5-.7 3.3-.8 4.8-.3 13.2-1.7 13.2-2.2 0-.1.9-.3 2-.5 3.4-.6 7.9-1.5 10.5-2 1.4-.3 3.1-.6 3.8-.7.6-.1 1.2-.5 1.2-.9s.9-.6 2-.4c1.1.2 2.2 0 2.5-.5.6-1 8.4-3.5 9.8-3.2.4.1.7-.2.7-.7 0-.5 1.7-1.6 3.8-2.4 3.3-1.4 14.5-10.7 12.8-10.7-.4 0 .4-1.5 1.7-3.3 2.2-2.8 4.1-7.2 3.9-8.7 0-.3.4-1 .9-1.7.6-.6 1.2-2.2 1.4-3.5.3-1.2.7-3.4 1.1-4.8 2-8.5 2.6-11.9 2.7-15 .1-1.9.5-3.8 1-4.1.4-.3.8-2.4 1-4.7.1-2.3.5-4.2.8-4.2.3 0 .5-1.2.4-2.8-.1-1.5.2-3.5.8-4.6.7-1.4.6-1.7-.5-1-1 .6-1.1.5-.2-.7.5-.8 1-2.1.9-2.9 0-.8.4-1.8 1-2.2.6-.5.6-.8-.2-.8s-.9-.9-.3-2.9c.4-1.6.6-3.2.3-3.5-.3-.2-.2-1 .2-1.6.4-.7.9-4.4 1.1-8.4.2-3.9.6-9.6 1-12.6.3-3 .7-7.4.7-9.8.1-2.3.4-4.2.7-4.2.3 0 .5-1.8.3-4-.1-2.2.3-4.2.9-4.6.7-.4.6-.9-.2-1.4-.8-.5-.9-1.3-.4-2.1.7-1.2 1.5-7.6 1.7-14.7.1-1.2.6-2.2 1.2-2.2.5 0 .4-.4-.3-.9-1.1-.6-1-1.2.4-2.6 1-1 1.9-1.4 2.1-.8.3.9 9 .9 10-.1.3-.3 1.3-.1 2.3.4 1 .5 2 .6 2.4.3.4-.4 3.5-.8 6.9-1 9.5-.3 13.1-.7 14.4-1.6.6-.4 1.4-.3 1.8.3.4.6 1.2.7 1.8.3.7-.4 2.3-.8 3.7-.9 2.9-.3 9.5-1.2 9.5-1.4 0-.2 3.6-1 6.5-1.5 1.4-.2 3.6-.6 5-1 4.6-1.1 7.5-1.8 9.5-2 1.1-.2 2.1-.4 2.3-.5.1-.2.5-.3 1-.5.4-.1 1.5-.5 2.4-.9.9-.4 2.3-.9 3.2-1 .8-.1 1.9-.5 2.2-.9.4-.4 1.6-.7 2.6-.7s1.8-.4 1.8-.8.8-.8 1.8-.9c2.3-.2 4.1-.7 7.7-2.3 1.7-.7 3.2-1.4 3.5-1.5.3-.1 2.2-.9 4.4-1.8 2.1-.9 4.2-1.7 4.7-1.7s.9-.5.9-1c0-.6.7-1 1.5-1 .9 0 3-.8 4.8-1.7 1.8-.9 3.5-1.7 3.9-1.8.4 0 1.6-.8 2.8-1.7 1.1-1 2-1.5 2-1.3 0 .3 1.7-.6 3.7-2 2.1-1.4 4.3-2.5 5-2.5.7 0 1.3-.4 1.3-1 0-.5 1.1-1.2 2.5-1.6 1.4-.3 2.5-1 2.5-1.4 0-.5.8-1.1 1.9-1.5 1-.3 2.8-1.3 3.9-2.3 5.4-4.6 6.2-5.1 6.2-4.5 0 .4.8-.2 1.9-1.3 2.1-2.2 6.6-5.5 7.7-5.7.4-.1 2.8-2.1 5.2-4.5 2.5-2.3 4.8-4.2 5.3-4.2s.9-.7.9-1.5.4-1.4.8-1.3c1.4.5 23.2-20.6 23.2-22.4 0-.5.5-.6 1-.3.6.3 1 .1 1-.5s1-2.1 2.3-3.3c1.3-1.2 4.4-4.9 7-8.2 2.6-3.3 5.4-6.7 6.2-7.6.8-.9 1.5-2.1 1.5-2.7 0-.7.4-1.2.9-1.2.4 0 2.1-1.9 3.7-4.3 1.6-2.3 3.7-4.9 4.6-5.8 1-.9 1.8-2.4 1.8-3.3 0-.9.4-1.6.9-1.6.9 0 6.6-9.4 7-11.5.2-.6.9-1.4 1.7-1.8.8-.5 1.2-1.2.9-1.7-.3-.4.2-1.1 1.1-1.4.8-.3 1.2-1 .9-1.6-.3-.5-.1-1 .4-1 .6 0 1.1-.7 1.1-1.5s.4-1.5.9-1.5c.9 0 2.4-3.8 2.2-5.3-.1-.4.6-1 1.4-1.3.8-.3 1.3-1 1-1.4-.3-.5.1-1.5.9-2.3.8-.8 1.2-1.7.9-2-.3-.3.4-1.8 1.6-3.3 1.1-1.4 1.9-3 1.6-3.4-.3-.4.2-1.3 1-2s1.2-1.6.9-2.1c-.3-.5 0-.9.5-.9.6 0 1.1-.3 1-.8-.2-1.4 1.3-5.2 2.2-5.2.4 0 .7-.8.7-1.8-.1-1.4 3.9-12.3 7.3-19.7.5-1.1 1-2.9 1.2-4 .1-1.1.5-2.5.8-3 .9-1.4 2.2-6.6 2.4-9.2.1-1.2.6-2.8 1.2-3.5.8-1.1 1.1-2.5 1.5-7.6.1-.6.5-1.2 1-1.2s.7-.4.4-.8c-.3-.5 0-1.9.7-3.3.7-1.3 1.2-4.3 1.2-6.6 0-2.4.4-4.3.9-4.3.4 0 .6-.9.3-2s-.2-2 .3-2c.4 0 .6-1.1.5-2.5-.2-1.4 0-2.5.4-2.5.5 0 .7-1.2.6-2.8-.1-1.5.1-3.2.4-3.7.3-.6.6-1.8.7-2.8.1-.9.2-1.8.4-2 .1-.1.4-2.7.6-5.7.7-10.3 1.3-17.5 1.9-22 .3-2.5.6-6 .5-7.8 0-4 0-3.4.3-18 .1-6.8-.1-12.2-.6-12.2s-.5-.6.1-1.3c.7-.8.7-1.8.2-2.7-.5-.9-.5-1.9.2-2.7.6-.7.6-1.3.1-1.3s-1-1.2-1-2.8c-.4-12.7-.9-18.2-1.4-18.2-.3 0-.5-1.2-.5-2.8.1-1.5-.2-3.8-.7-5.2-.5-1.4-1-3.9-1.2-5.5-1.1-8.9-1.7-12-2.3-12.5-.4-.3-.7-1.6-.7-3 .1-1.4-.7-4.8-1.7-7.5-1-2.8-2-6.1-2.2-7.5-.2-1.4-.5-2.6-.7-2.8-.1-.1-.2-.6-.3-1.1 0-.5-.4-1.2-.8-1.6-.4-.4-.4-1.3-.1-2.1.3-.8 0-1.4-.6-1.4s-1.1-.9-1.1-2-.5-2-1.2-2c-.6 0-.9-.3-.5-.6.3-.4 0-1.8-.7-3.3-.7-1.4-1.1-3.2-.8-4 .3-.8 0-1.1-.7-.7-.7.5-.9.1-.5-.8.4-1 .1-1.6-.7-1.6-.7 0-.9-.3-.6-.7.4-.3 0-1.7-.8-3-.9-1.3-1.2-2.3-.9-2.3.4 0-.1-.8-1-1.9-.9-1-1.8-2.8-1.9-3.9 0-1.2-.3-1.9-.6-1.7-.6.6-3.1-4.4-3.1-6.1 0-.8-.4-1.4-1-1.4-.5 0-1-.5-1-1 0-1.2-5-9.2-6.3-10.1-.5-.3-.8-.9-.7-1.3.1-.4-.5-1.7-1.4-2.9-.9-1.2-3.9-5.5-6.8-9.5-2.8-3.9-5.5-7.2-6-7.2-.4 0-.8-.5-.8-1.1 0-.7-1.3-2.5-3-4.1-1.7-1.5-3-3-3-3.2 0-.3-2.2-2.8-5-5.6-2.7-2.8-5-5.5-5-6s-.5-1-1-1.2c-1.7-.5-29.7-28.7-29.2-29.3.3-.3-.3-.5-1.3-.5s-1.6-.3-1.3-.6c.7-.6-3.9-5.4-5.2-5.4-.5 0-1.2-.9-1.5-2-.4-1.1-1.1-1.8-1.6-1.5-.5.4-.9 0-.9-.8 0-.7-1.1-2-2.5-2.7-1.3-.7-2.7-2.2-3.1-3.2-.3-1-1-1.6-1.5-1.3-.5.4-.9-.2-.9-1.1 0-1-.2-1.5-.5-1.2-.5.4-13.5-12-13.5-12.9 0-.8-2.7-3.2-3.1-2.8-.2.2-1.5-1.2-2.9-3.1-1.4-1.8-2.9-3.4-3.4-3.4s-2.3-1.5-4.1-3.3c-1.7-1.7-4.7-4.3-6.5-5.7-1.8-1.4-5.3-4.3-7.7-6.5-6.5-6-7.1-6.5-8.2-6.5-.5 0-1.1-.3-1.3-.8-.1-.4-4.3-3.4-9.3-6.7-4.9-3.3-9.3-6.5-9.7-7-.5-.7-.8-.7-.8 0 0 .6-.3.6-.8 0-1-1.5-7.2-5.8-7.2-5 0 .4-.7-.1-1.6-.9-.8-.9-2.2-1.6-3-1.6-.8 0-1.4-.5-1.4-1 0-.6-.7-1-1.6-1-.9 0-2.8-.8-4.2-1.8-1.5-1.1-4.2-2.5-5.9-3.3-1.8-.8-3.3-1.8-3.3-2.2 0-.5-.4-.5-1-.2-.5.3-1 .2-1-.2 0-.9-3.7-2.7-10.2-5.2-1.6-.6-4-1.6-5.5-2.3-1.6-.6-3.1-1.2-3.5-1.2-.3-.1-1-.4-1.4-.9-.4-.4-1.6-.7-2.6-.7s-1.8-.5-1.8-1.1c0-.6-.7-.9-1.5-.5-.8.3-1.5.2-1.5-.3 0-.7-3.3-2.1-4.3-1.9-.1.1-2.1-.9-4.4-2.1-2.4-1.2-4.3-1.8-4.3-1.5 0 .4-1-.1-2.2-1.2-1.4-1.3-1.9-1.4-1.4-.4.6 1.2.5 1.2-.6-.1-.7-.9-1.9-1.4-2.5-1.2-.7.3-1.3 0-1.3-.5 0-.6-.8-.9-1.7-.7-1 .1-2.8-.4-4.1-1.2-1.2-.7-2.7-1.1-3.2-.8-.5.3-1.1.1-1.5-.5-.4-.6-1-.8-1.5-.5-.5.3-1.1.1-1.5-.4-.3-.6-1.2-.8-2-.4-.8.3-1.5 0-1.5-.5 0-.6-.9-.9-2-.7-1.1.2-2.2.1-2.4-.3-.2-.4-1.9-.9-3.8-1-1.8-.2-3.4-.7-3.6-1.2-.2-.6-1.1-.6-2.3 0-1.2.7-1.9.7-1.9.1 0-.5-.9-1-2-1-1.1-.1-2.9-.1-4-.2-1.1 0-2-.3-2-.7 0-.4-1.7-.8-3.8-1-2-.2-4.6-.4-5.7-.6-1.1-.2-3-.4-4.3-.5-1.3 0-2.1-.4-1.9-.9.3-.4-1.6-.6-4.1-.6-2.6.1-5.1-.1-5.6-.4-1.5-.9-6.6-.8-6.6.1 0 .5-.6.5-1.2 0-.7-.4-2.6-.9-4.3-.9-1.6-.1-6.6-.5-11-.9s-9.1-.8-10.5-.9c-1.4-.1-3.1-.5-3.7-.9-.7-.5-1.3-.4-1.3.1 0 .6-1.4.7-3.2.3-1.8-.4-4.4-.7-5.8-.6-1.4 0-2.8-.4-3.2-1-.5-.6-.8-.5-.8.3 0 .9-.6 1-1.7.4-2.1-1-11.4-.9-13.1.2-.7.4-1.2.2-1.2-.5 0-.8-.4-.8-1.5.1-1.2 1-1.5 1-1.5 0s-.3-1-1.5 0c-1 .8-1.5.9-1.5.2s-.7-.9-1.7-.5c-2.3.9-6.6.8-8.1-.1-.7-.4-1.2-.2-1.2.4 0 .7-.6.8-1.8.1-1.1-.6-2.4-.6-3.2-.1-.9.5-1.9.5-2.7-.2-.9-.7-1.3-.7-1.3.2 0 1-.3 1-1.5 0-1.1-.9-1.5-.9-1.5-.1s-.6.9-1.8.2c-1.1-.6-2.4-.6-3.5 0-1.2.7-1.7.6-1.7-.2s-.4-.9-1.3 0c-1 .8-1.7.7-2.5-.1-.9-.9-1.2-.9-1.2-.1 0 1.1-3.7 1-4.8-.1-.2-.3-1.3-.1-2.3.5-1.4.7-1.9.6-1.9-.2s-.4-.9-1.3 0c-1 .8-1.7.7-2.5-.1-.9-.9-1.2-.9-1.2 0s-.5 1-1.8.3c-1.1-.6-2.4-.6-3.2-.1-.9.5-1.9.5-2.6-.1-.8-.7-1.4-.7-1.8 0zm151.8 321.8c-.2 4.9-.5 10.1-.8 11.8-.6 3.5-1.4 6.9-1.6 7.2-.2.2-.4.7-.5 1.3-.1.5-.4 1.2-.5 1.5-.1.3-.3.9-.4 1.3-.2 1.2-4 9.6-4.6 10.2-.3.3-1.4 2.1-2.4 4-1.1 1.9-3 4.6-4.3 6-1.3 1.4-2.3 2.8-2.3 3.2 0 .5-.7.8-1.5.8-1.1 0-1.5-1.3-1.6-5.3-.2-10.2.2-21.1.9-22.2.4-.5.7-1.9.8-3 .2-4.2 5-14.1 7.7-16 1.2-.8 1.8-1.5 1.3-1.5s.4-1.2 2-2.7c1.6-1.5 3.2-2.6 3.7-2.5.4.1.7-.2.7-.7 0-.5.8-1.2 1.8-1.4.9-.3 1.7-.5 1.8-.6 0 0-.1 3.8-.2 8.6zM916 479.6c0 .6-2.3 1.1-5.2 1.1-2.9.1-5.3.2-5.3.3 0 .1-3 .3-6.6.4-3.6.2-6.9.5-7.5.7-.5.3-3.5.4-6.6.4-3.2 0-5.8.2-5.8.5s-2.6.6-5.8.7c-3.1.1-7 .4-8.7.8-1.6.4-4.3.8-6 .9-1.6.2-3.8.6-4.7 1-1 .5-2.5.6-3.3.2-.8-.3-1.5-.1-1.5.5s-.7.9-1.5.6c-.8-.4-1.7-.2-2 .4-.4.5-1 .7-1.5.4-.5-.3-1.1-.1-1.4.4-.4.5-1.7.8-3.1.6-1.4-.1-2.5.1-2.5.5s-2 1.3-4.5 2-4.8 1.7-5.1 2.2c-.3.4-1 .6-1.5.3-.5-.4-.9-.1-.9.4 0 .6-.7 1.1-1.5 1.1-.7 0-1.8.8-2.4 1.7-.5 1-1.3 1.5-1.6 1.1-.4-.4-2.6 1.1-4.8 3.3-2.3 2.1-4.5 3.9-5 3.9-.4 0-.5.4-.2 1 .3.5.1 1-.5 1s-2.4 1.3-4 3c-1.6 1.6-3.2 3-3.5 3-1.1 0-8.5 8.3-9 10.1-.4 1.1-1.1 1.9-1.6 1.9-.6 0-.8.4-.4.9.3.5.1 1.2-.5 1.6-.6.4-.8 1-.5 1.5.3.4-.2 1.3-1 2s-1.3 1.5-1 1.9c.2.4-.2 2.8-1 5.3-.7 2.6-1.1 4.9-.8 5.2.4.3.1.6-.4.6-.6 0-1 .8-.8 1.7.1 1-.2 2.9-.8 4.3-.5 1.4-1.1 4.1-1.2 6-.2 1.9-.4 3.5-.5 3.5-.1 0-.3.9-.5 2s-.7 3.5-1 5.3c-.5 2.7-.3 3.2.7 2.6 1-.6 1-.5.1.7-1 1.2-2 6.5-2.9 15.4-.1 1.6-.5 4.6-.8 6.5-.3 1.9-.7 5.6-.8 8.2-.2 2.7-.5 4.8-.8 4.8-.3 0-.6 1.5-.6 3.2 0 1.8-.4 5.8-.8 8.8-.8 5.4-1.6 12.9-1.9 18.2-.1 1.6-.4 2.8-.7 2.8-.5 0-1.2 8-1.4 16.7 0 2.8-.3 5-.6 4.8-.3-.2-.6 4-.7 9.2-.2 5.9-.8 10.2-1.5 11.1-.8.9-.8 1.3-.2.9.8-.4 1.1.5 1 2.8 0 1.9-.5 3.5-.9 3.5s-.3.9.3 2 .7 2 .3 2c-.4 0-.8 3.2-.8 7.1 0 3.9-.2 7.2-.5 7.4-.3.2-.6 3.8-.5 7.9 0 4.2-.2 7.6-.5 7.6s-.5 2.5-.5 5.6c.1 3-.2 5.7-.5 5.9-.3.2-.5 4-.5 8.4 0 4.5-.3 8.1-.7 8.1-.8 0-.4 2.7.5 3.6.3.4.3 1.4-.2 2.3-.4.9-.9 5-1 9.1-.1 4.4-.7 7.8-1.4 8.2-.7.4-.7.8-.2.8.6 0 1 1.2.9 2.7-.1 1.6-.3 2.8-.4 2.8-.1 0-.3 4.3-.6 9.5-.5 10-1 16.5-1.4 16.5-.1 0-.3 1-.4 2.2-.2 1.3.1 2.3.5 2.3.5 0 .4 1.1-.1 2.5-.6 1.6-.6 2.5.1 2.5.6 0 .6.6.1 1.7-.5 1-.9 3-.8 4.5.1 1.6-.1 2.8-.4 2.8-.3 0-.5 3.5-.5 7.8.1 4.2-.1 8.1-.3 8.5-.2.5-.6 5-.8 10-.6 13-1 17.2-1.9 18.7-.6.9-.4 1.1.5.5.9-.5 1.1-.4.6.4-1.3 2.1-1.6 7.2-.4 6.5.7-.5.8-.2.2.7-.4.8-.9 4.1-1 7.4-.1 3.3-.3 6.4-.4 7-.1.5-.1 1.4 0 2 .3 1.5.2 7.5-.3 11.7-.2 2.1.1 3.8.6 3.8s.5.6-.2 1.3c-.8 1-.7 1.7.2 2.7.6.7.8 1 .2.7-.7-.3-1 7.1-1 21.4 0 12-.3 21.9-.7 21.9-.4 0-.3 1.1.2 2.4.5 1.3.6 2.7.3 3-.8.8-.7 10.2.1 11.5.4.6.4 1.1-.1 1.1-1.1 0-1 21.2.1 22.9.6.9.5 1.2-.1.8-.7-.5-1 1.9-.9 6.8 0 4.1-.1 7.5-.4 7.5-.3 0-.5 11.4-.5 25.3 0 15.7-.4 25.5-1 25.9-.7.5-.6.8.1.8 1.1 0 1.2 6 0 7.8-.3.6-.2 1.4.4 1.7.8.5.7 1.1-.1 2.1-.9 1.1-.9 1.4.1 1.4s1 .3 0 1.5c-.9 1.1-.9 1.5-.1 1.5.9 0 .9.5.1 2s-.8 2 .2 2c.8 0 .9.3.3.8-.5.4-1 2-1 3.7 0 1.6.5 3.3 1 3.7.7.5.6.8 0 .8s-1.1 1.1-1.1 2.5.4 2.5.9 2.5c.4 0 .5.6 0 1.2-1.2 2-1.2 12.9 0 12.1.6-.4.7-.1.1.8-1.2 2-1.3 5.9-.1 5.9.5 0 .5.6-.2 1.3-.8 1-.7 1.7.1 2.5.9.9.9 1.2-.1 1.2-.9 0-1 .4-.4 1.2 1.1 1.5 1.1 2.8 0 4.5-.4.6-.4 1.4 0 1.6.5.3.8 3.6.8 7.4 0 3.7.5 7.1 1 7.5.6.5.5.8-.3.8-.7 0-1 .5-.7 1 .4.6.8 6.6.9 13.4.2 6.8.5 12.8.8 13.2.2.5.3 2 .2 3.4-.1 1.4.3 3.1.8 3.8.7.8.7 1.2-.1 1.2-.8 0-.9.6-.3 1.7.5 1 .8 3.7.8 6-.1 2.4.1 4.3.4 4.3.7 0 1.2 3.8 1.3 9.7.1 2.4.4 4.3.7 4.3.3 0 .6 1.5.7 3.2.2 5.5.6 8.2 1.3 9.3.4.5.6 2 .5 3.2-.1 1.3.2 2.3.7 2.3.5 0 .8.6.7 1.2-.2.7.4 4 1.1 7.3.8 3.3 1.4 6.7 1.5 7.5 0 .8.5 2.6.9 3.8.8 2.3 1.1 4.2 2 10.2.2 1.4.5 2.6.6 2.7.1.2.4.7.5 1.3.1.5.4 1.2.5 1.5.1.3.2 1.7.3 3.2 0 1.6.4 3 .8 3.3.4.3 1 2.3 1.2 4.5.2 2.2.8 4.8 1.2 5.7.4.9.4 2.2 0 2.8-.3.5-.1 1 .5 1 .7 0 1 .6.7 1.4-.3.8-.3 1.7.1 2 .3.4.7 1.7.9 2.9.7 5.1 5.7 16.2 8.6 19.1 3 2.9 8.7 6.9 8.7 6 0-.3.7 0 1.7.7.9.8 1.7 1.3 1.7 1.1.1-.1 1.7.3 3.6 1 1.9.7 3.8 1.1 4.3 1 .4-.1.7.4.7 1 0 .9.3.8 1-.2.8-1.2 1-1.2 1.6.3.5 1.3 1 1.5 1.9.7.9-.8 1.5-.8 2 0 .3.6 1.1.8 1.6.5.5-.4.9-.2.9.4 0 .6.6.8 1.3.5.7-.2 3.1.2 5.4 1 2.3.8 4.4 1.2 4.8.8.3-.4 1 0 1.5.8.8 1.2 1 1.2 1 .1 0-.9.4-1 1.3-.4.6.6 2.2.9 3.5.8 1.3-.1 2.5.2 2.7.6.3.4 1.4.5 2.5.2s2-.1 2 .3c0 .5 2.1 1 4.8 1.1 5.9.4 7.3.6 9.1 1.7 1.1.7 1.2.6.6-.5-.7-1.1-.6-1.2.6-.3.8.5 3.2 1.2 5.4 1.3 2.2.2 4.6.8 5.4 1.4 1.1.9 1.3.9.8 0-.5-.8.1-1.1 1.8-.9 1.4.1 2.8.6 3.2.9 1.1 1.1 2.5.8 1.7-.4-.5-.8-.1-.8 1.4 0 1.1.6 3.4.9 5.1.7 1.7-.2 3.3-.1 3.5.3.3.4 2.3.6 4.5.5 2.3 0 4.1.2 4.1.5s3 .6 6.8.6c3.7-.1 7.7.2 8.8.6 1.2.4 2.6.3 3.3-.4.6-.6 1.1-.7 1.1-.1 0 .5 4 .9 9 .9 4.9-.1 9 .3 9 .8s.6.5 1.3-.1c.7-.6 2.8-.7 5.5-.2 2.3.4 4.5.3 4.8-.1.3-.5 1.1-.6 1.7-.2.6.4 4.9.8 9.5.9 4.6.2 8.7.5 9 .8.3.3 1.1.1 1.9-.5.7-.6 1.3-.7 1.3-.2 0 .5 1.6.7 3.5.5 2.1-.3 4.2.1 5.2.9.9.8 1.4.9 1.1.4-.4-.7 4.8-1.1 15-1.3 15-.3 24.1-.7 25.2-1.2.5-.3 4.8-.6 9.3-.9 2-.1 2.6-.5 2.1-1.4-.6-.9-.4-.9.7-.1 1.6 1.1 2 1.1 6.9-.1 1.9-.5 4-.9 4.5-1 2.5-.2 8.2-3.5 10.5-5.9 1.4-1.6 3.3-3.7 4.3-4.7.9-1 1.4-1.9 1.1-1.9-.3 0 .4-1.3 1.5-2.9 1.1-1.5 1.8-3.1 1.4-3.5-.3-.3-.2-.6.4-.6.5 0 1.6-1.8 2.3-4 .7-2.2 1.6-4 1.9-4 .3 0 .7-1.1.7-2.4.1-1.3.9-3.8 1.7-5.7 2-4.5 4.1-10.9 4.2-13.4.1-1.1.6-2.9 1.2-4s.9-2.8.8-3.8c-.2-.9.1-1.7.6-1.7.4 0 .6-.7.3-1.5-.4-.8-.1-1.5.6-1.5.6 0 .9-.3.6-.8-.2-.4.2-3.2 1.1-6.2.8-3 1.6-6.6 1.8-8 .2-1.4.4-2.6.5-2.8.1-.1.4-.7.5-1.2.1-.6.4-1.2.5-1.5.1-.3.4-1.4.5-2.5.1-1.1.3-2.1.5-2.3.2-.3 1-3.6 1.5-6.2.2-1.1.7-3.1 1.2-4.5s.9-3.2.8-4c0-.8.4-1.8 1-2.2.6-.5.5-.8-.3-.8s-1-.5-.5-1.3c.4-.6.8-1.9.8-2.7 0-.8.3-2 .7-2.6.4-.6.6-2.1.3-3.3-.2-1.1 0-2.1.4-2.1.5 0 .7-1.1.6-2.5-.2-1.4.1-2.7.6-3.1.5-.3.5-1.3-.1-2.4-.5-1-.6-2-.1-2.2.8-.3 1.6-4.1 2.7-13.3.6-4.6 1.2-8 1.4-8 .1 0 .3-1.1.5-2.5.6-5.5 2.1-14.9 2.5-16 .1-.3.2-.9.1-1.3s.4-1.7 1-2.9c.9-1.6.8-1.9-.2-1.3-.8.6-1 .4-.4-.4.4-.7.9-2.9 1.2-4.9.8-6.2.9-6.7 1.6-7.8.3-.6.4-2.3.1-3.7-.2-1.5 0-2.7.4-2.7.5 0 .8-1.2.7-2.8-.1-1.5.1-3.2.4-3.7.6-1.1.7-1.6 1.6-8.5.3-2.5.8-5.2 1-6 .2-.8.6-3.5.9-6 .3-2.5.8-5.6 1.1-7 .3-1.4.6-3.8.7-5.3.1-1.5.5-3 .9-3.3.5-.2.6-1.1.3-1.9-.3-.8-.3-1.9.1-2.5.5-.8 2.5.8 5.6 4.2 2.7 2.9 4.9 5.6 4.9 6 0 .5.7.8 1.7.8.9 0 1.3.3 1 .7-.4.3 1.1 2.4 3.3 4.5 2.2 2.2 4 4.2 4 4.4 0 .9 39.9 40.4 40.7 40.4.4 0 1.7 1.3 2.8 2.9 1 1.6 2.2 2.9 2.5 2.8.5-.2 7.5 6.3 21.2 19.5 3.8 3.8 7.4 6.8 7.9 6.8s.9.7.9 1.5.4 1.5.8 1.5 3.1 2.1 5.8 4.7c2.8 2.7 10.2 9.5 16.4 15.3 6.2 5.8 11.8 11.1 12.6 11.7.7.7 1.5 1.3 1.9 1.3.3 0 1.9 1.4 3.5 3 1.6 1.7 3.2 3 3.5 3 .4 0 2.1 1.3 5.9 4.5 5.4 4.6 21.5 11.9 25.9 11.8.9 0 1.7.4 1.7.9s.4.7.9.3c.6-.3 3.2-.7 5.9-.9 2.6-.2 7-1.3 9.6-2.5 2.7-1.1 5.4-2.1 6.1-2.1.7 0 1.8-.7 2.5-1.5s1.6-1.2 2.1-.9c.5.3.9.2.9-.3 0-.4 1.5-1.5 3.2-2.2 3.5-1.6 11-6.5 14.2-9.3 1.1-1 2.8-2 3.8-2.4 1-.3 1.8-1 1.8-1.5 0-.6.4-.8.8-.5.5.3 1.5-.3 2.4-1.2 1.7-2 4.7-4.5 10.3-8.7 2.2-1.6 4.7-3.6 5.6-4.5.9-.8 3-2.5 4.7-3.8 1.7-1.3 4.5-3.6 6.4-5.2 1.8-1.6 3.9-3 4.6-3 .7 0 1-.5.7-1-.3-.6-.2-1 .3-1 .4 0 2.2-1.2 4-2.8 5.4-4.8 7.2-6.2 7.2-5.7 0 .3.8-.3 1.8-1.3 3.3-3.1 8.2-7.2 8.6-7.2.3 0 1.9-1.3 3.7-3 1.8-1.6 3.6-2.7 4.1-2.4.4.3.5-.1.3-.8-.4-.9.2-1.4 1.5-1.5 1.1-.1 2 .3 2 .8 0 .6-.6.7-1.2.3-1-.6-1-.5-.1.7.7.9 1.3 4.8 1.3 9 .2 7.6.7 16.4 1 16.4.1 0 .4 2 .6 4.5.7 9.4 1.1 12.7 1.7 13.8.4.6.3 1.3-.3 1.7-.7.4-.7 1.2 0 2.5 1.3 2.5 1.3 3.3-.2 2.5-.7-.4-.4.1.7 1 1.6 1.3 1.7 1.7.6 2.4-.8.6-.9 1.1-.3 1.5.6.3 1.1 1.4 1.2 2.4.2 4.6 1.3 11.2 1.9 11.2.3 0 .5 1.5.5 3.2-.1 1.8.1 3.7.5 4.3.6 1.2.8 1.8 1.7 6.5.3 1.9 1.1 4.4 1.7 5.5.6 1.1 1.2 2.4 1.3 3 .4 2.6 1.7 5.5 2.5 5.5.5 0 .9.6.9 1.4 0 1.6 6.4 8.6 7.9 8.6.5 0 1.1.3 1.3.7.6 1.5 9.6 8.3 10.9 8.3.7 0 1 .3.6.6-.3.4 1.7 2.4 4.6 4.5 2.9 2.1 6.2 4.8 7.5 6.1 1.2 1.2 2.2 1.9 2.2 1.4s.8 0 1.8 1c.9 1.1 3.7 3.5 6.2 5.4 2.5 1.9 4.6 3.8 4.8 4.2.2.5.8.8 1.3.8.8 0 4.7 3.1 8.5 6.8.8.7 1.4 1.1 1.4.7 0-.3 1.4.8 3 2.5 1.7 1.7 3 2.8 3 2.5 0-.3 1 .4 2.3 1.5 1.2 1.1 4.2 3.6 6.7 5.6 2.5 1.9 5.3 4.2 6.3 5 .9.8 2.1 1.4 2.5 1.4.4 0 1.4.9 2.2 2 .8 1.1 2 2 2.7 2 .7 0 1.3.4 1.3.9 0 1.1 5.4 4.3 9.8 5.9 2.2.7 3.1.8 2.6.1-.4-.8 0-.7 1.4 0 1.1.6 3.2 1.1 4.6 1.1 1.4 0 2.6.3 2.6.8 0 .4 1.2.7 2.8.8 2.5.1 9 .8 19.2 2.1 2.5.3 7 .6 10.1.7 3 .2 6 .6 6.7.9.6.4 1.3.3 1.7-.2.3-.6 1.5-.7 2.8-.2 1.2.5 3.1.5 4.3.1 1.1-.5 2.7-.4 3.5 0 .8.5 1.9.4 2.6-.2.7-.6 1.3-.6 1.3-.1s.9.9 2 1c1.1.1 2-.3 2-.8 0-.6.6-.7 1.3-.2 2.2 1.4 4.9 1.4 4.1.1-.6-1-.5-1 .7-.2.8.7 5.7 1.3 10.9 1.4 21.3.5 30.5.8 30.5.9 0 .1 1.7.3 3.7.5 2.1.2 3.5-.1 3.2-.5-.2-.4 1-.4 2.7.1 1.8.5 3.9.6 4.7.1.8-.5 2.7-.6 4.1-.2 3.3.8 5.3.7 6.9-.2.7-.5 1.2-.3 1.2.3s.5.8 1.2.4c1.7-1 11.8-1.2 12.4-.2.3.5 1.1.5 1.7.1.7-.4 4.8-.9 9.2-1 14.4-.3 18-.6 19.2-1.5.7-.5 1.4-.5 1.8.2.4.6 1.3.7 2.3.1.9-.4 3.4-.7 5.5-.7 2 .1 3.7-.1 3.7-.4 0-.3 1.9-.5 4.3-.6 2.3-.1 6.7-.5 9.7-.9 3-.4 6.1-.8 6.8-.8.6 0 1.2-.5 1.2-1s.6-.4 1.4.2c.9.8 1.5.8 1.8.1.1-.5 1.3-1.2 2.6-1.5 4-.7 9.2-2.9 9.2-3.8 0-.4.4-.6.9-.2 2 1.2 12.1-11 11.3-13.8-.1-.4.2-.7.7-.7.8 0 1.9-2.5 2.5-5.5.1-.6.8-2.4 1.6-4 .7-1.7 1.5-4.1 1.7-5.5.2-1.3.9-3 1.5-3.7.6-.7.8-1.3.6-1.3-.3 0 .6-3.9 1.9-8.8 1.4-4.8 2.5-9.5 2.4-10.5 0-.9.4-1.7.9-1.7.4 0 .7-.7.6-1.6-.1-.9.3-4.8 1.1-8.6.7-3.9 1-7.4.7-7.9-.3-.5-.1-.9.3-.9.5 0 .9-1.2 1-2.8.1-3.8.6-5.6 1.8-6.4.6-.5.5-.8-.3-.8s-1-.5-.5-1.3c.4-.6.8-2 .9-3 .1-.9.3-1.8.4-2 .1-.1.4-1.6.5-3.2.2-1.7.6-4.1 1-5.5.5-2.4 1.5-8.5 2-12.5.1-1.1.4-2 .5-2 .1 0 .3-1.1.4-2.5.1-1.4.4-3 .8-3.5.3-.6.4-1.8.3-2.8-.2-.9 0-1.7.4-1.7s.6-1.6.6-3.5c-.1-1.9.2-3.5.7-3.5.4 0 .7-.3.6-.8-.1-.4.2-3.9.7-7.7.5-3.9.9-8.2.9-9.8 0-1.5.2-2.7.5-2.7s.6-2.1.6-4.8c0-2.6.2-5.1.4-5.6.6-1.3 1.3-9 1.5-15.3 0-2.9.4-5.3.8-5.3s.6-1.4.4-3c-.2-1.7-.1-3 .3-3 .6 0 .8-2.6 1.4-14.7.1-2.9.4-5.3.8-5.3.3 0 .5-1 .6-2.3.4-8.4.7-10.3 1.6-11.5.6-.8.6-1.2-.2-1.2s-.9-.6-.3-1.8c.4-.9.8-2.9.7-4.5 0-1.5.3-2.7.8-2.7s.4-.7-.3-1.5-.8-1.5-.3-1.5.9-1 1-2.3c0-2 .7-9.4 2-20.7.3-2.5.6-6.6.7-9.2 0-2.7.4-4.8.9-4.8.4 0 .7-.9.7-2.1 0-1.3-.4-1.8-1.2-1.4-.7.4-.6.1.2-.7.9-.7 1.5-2.9 1.5-5.1-.1-2 .4-3.7 1-3.7.5 0 .3-.5-.5-1-.9-.6-1.1-1.3-.5-1.8.6-.4 1.1-2.5 1.2-4.7.1-2.2.5-6 .8-8.5.2-2.5.7-6.4.9-8.7.2-2.3.7-4.6 1.1-5.2.3-.6.1-1.1-.5-1.1-.7 0-.8-.5-.3-1.3.4-.6.8-2 .9-3 .1-.9.3-2 .4-2.5.1-.4.1-1.9 0-3.4-.1-1.4.3-2.9.9-3.2.6-.4.6-1.8.1-3.6-.5-1.9-.5-3.2.2-3.6.5-.3.8-1.5.5-2.5-.3-1.1-.1-1.9.4-1.9.6 0 .5-.8-.1-2-.8-1.5-.8-2 .1-2 .6 0 .9-.9.6-2-.3-1.1-.1-2.3.4-2.6.6-.3.5-1.1-.2-2-.6-.8-.7-1.4-.2-1.4.6 0 .9-1.6.8-3.6-.1-1.9.1-3.7.5-3.9.4-.2.6-2.2.5-4.5-.1-2.2.1-4 .4-4 .6 0 1.2-7.9 1.5-19.2 0-3.2.3-5.8.6-5.8s.6-3.6.5-8c0-4.4.2-8 .5-8s.5-2.6.4-5.7c0-3.2.4-6.6.9-7.7.7-1.4.6-1.7-.5-1-1 .6-1.1.4-.3-.7.6-.8 1-4.2 1-7.7 0-3.4.2-6.2.5-6.2s.6-4.4.7-9.8c.3-10.4 1.1-25.4 1.4-26.2.1-.3 0-1.3-.1-2.4-.1-1.3.2-1.6 1.2-1 1 .6 1.1.5.2-.7-.9-1.1-1.2-7.4-.4-7.4.1 0 .3-1.2.4-2.8.1-1.5-.2-2.7-.7-2.7-.6 0-.5-.5 0-1.3.5-.6.9-4.2.9-7.9-.1-3.8.1-6.8.4-6.8.3 0 .5-2.6.5-5.8 0-3.1.3-6.5.8-7.5s.4-1.7-.3-1.7c-.6 0-.8-.5-.4-1.2.7-1.2 1.3-8.7 1.7-21.5.1-3.5.6-6.3 1.1-6.3.6 0 .5-.5-.2-1.2s-.8-1.7-.1-3c.7-1.3.6-1.8-.3-1.8-.8 0-.9-.3-.3-.8.6-.4 1.1-2.3 1.2-4.2.4-12.8.7-15.7 1.7-16.9.8-1.1.8-1.3-.1-.7-1.6.9-1.7-.6-.1-2.2.7-.7.8-1.2.2-1.2-.6 0-1.1-.7-1.1-1.5s.3-1.5.6-1.5.6-3.3.6-7.3c-.1-3.9.1-7.6.4-8.2.3-.5.6-3.5.6-6.5s.4-6 .8-6.6c.3-.6.3-1.4 0-1.8-.9-.8-1.1-4.6-.3-4.6 1.1 0 .7-11.5-.4-12.2-.8-.6-.8-.8 0-.8 1.1 0 1.2-1.8 1.8-39.6.1-8.8.6-16.5.9-17.1.4-.7.3-1.4-.3-1.8-.6-.4-.7-1.2-.3-1.8.9-1.5 1.1-4.7.3-4.7-.9 0-.6-3.2.4-4.8.4-.7.2-1.2-.4-1.2-.8 0-.8-.6 0-2 .6-1.1.7-2 .3-2-.4 0-.9-4.3-1-9.7-.2-6.6-.6-9.9-1.5-10.4-.8-.6-.9-.9-.2-.9 1.2 0 1.2-14.9 0-16.8-.3-.6-.2-1.3.4-1.7.6-.4.8-1.1.4-1.6-.6-1-1-3.1-1.9-9.4-.8-6.5-1.1-7.8-2.4-11.8-.7-2-1.7-3.7-2.2-3.7-.5 0-.9-.5-.9-1.2 0-2.6-9.5-10-18.3-14.3-5.1-2.5-10-4.5-10.9-4.5-.9 0-2-.5-2.3-1-.3-.6-1.9-1-3.6-1-1.6 0-2.9-.4-2.9-.8s-.8-.9-1.7-1c-3.2-.3-4.8-.7-6-1.5-.7-.5-1.3-.6-1.3-.2 0 .3-1 0-2.2-.6-1.3-.7-3.6-1.3-5.3-1.4-3.1-.2-6.9-.9-13.9-2.5-2.2-.5-4.4-.7-4.8-.4-.4.3-.8.1-.8-.3 0-.5-1.7-1-3.7-1.1-2-.2-4.2-.6-4.8-1.1-.5-.4-2-.6-3.2-.5-1.3 0-2.3-.2-2.3-.7 0-.5-.6-.6-1.3-.3-.8.3-2.5 0-3.9-.5-1.8-.7-2.9-.6-3.7.2-.8.8-1.1.8-1.1-.2 0-.7-.4-1-.9-.6-.5.3-1.2.2-1.4-.2-.3-.5-2.8-.8-5.6-.7-2.8 0-5.1-.4-5.1-.9s-.6-.4-1.3.2c-.8.6-1.7.7-2.1.3-.4-.4-2-.8-3.4-.8-1.5-.1-2.7-.3-2.7-.4 0-.1-1.6-.3-3.5-.5-1.9-.1-6.6-.6-10.5-1-3.8-.4-10.4-.8-14.7-1-4.2-.1-8.1-.6-8.7-.9-.6-.4-1.1-.2-1.1.5 0 .9-.3.9-1.4 0-.9-.8-1.6-.8-2-.2-.4.6-1.2.8-2 .5-2.4-.9-9.7-1.1-10.2-.3-.3.5-1.3.5-2.2.1-.9-.5-6.9-.9-13.4-.8-7.5.1-11.4-.3-11-.9.3-.6-.2-.4-1.1.4-.9.7-1.7 1-1.7.6s-.7-.2-1.5.5-1.5.8-1.5.3-.9-.9-2-.9-2 .3-2 .6-2.6.5-5.7.4c-3.2 0-7.5.3-9.5.7-2.2.3-3.8.2-3.8-.3s-.6-.6-1.2-.2c-.7.5-3.7.9-6.8 1-3 .1-8 .5-11 .9s-6.9.8-8.6 1c-1.7.1-3.5.4-4 .7-.5.2-1.6.4-2.4.3-.8 0-1.8.4-2.2 1-.5.6-.8.5-.8-.3 0-.7-.4-1-1-.7-1 .6-5.3 1.4-10.5 2-4.3.4-9.9 1.5-10.4 2-.2.3-1 0-1.8-.6-.7-.6-1.3-.7-1.3-.2 0 .5-.6 1-1.2 1-1.2.1-4.8.5-12.8 1.8-1.9.2-4.7.6-6.2.7-1.6.1-2.8.6-2.8 1.1 0 .5-.6.5-1.3-.1-.8-.7-1.8-.7-2.7-.2-.8.5-1.8.6-2.3.3-.5-.3-1.3.1-1.8.8-.7 1.2-.9 1.2-.9 0 0-1.1-.3-1.1-1.5-.1-.8.7-1.5.9-1.5.5s-.7-.2-1.5.5c-1.1.9-1.5.9-1.5.1 0-.7-.4-.9-1-.6-.5.3-2.6.8-4.6 1.1-2.1.2-5.1.7-6.8 1-1.7.3-4.7.7-6.6 1-4.8.5-6.3.8-7.7 1.7-.7.5-1.3.4-1.3-.2 0-.7-.8-.7-2.3-.2-1.3.5-3.7 1.2-5.3 1.4-1.6.3-4.4 1-6.2 1.6-1.8.5-3.3.9-3.5.9-1-.2-9.4 2.8-9.9 3.7-.4.5-.8.7-.8.2 0-.4-1.7.1-3.9 1.2-2.1 1.1-4.1 1.7-4.5 1.4-.3-.4-.6-.1-.6.5s-2 2.1-4.5 3.3c-2.4 1.2-4.2 2.6-3.9 3.1.3.4.1.8-.3.8-.5 0-4 2.9-7.8 6.5-3.9 3.6-7.3 6.5-7.6 6.5-.3 0-1.2 1.1-1.9 2.5s-1.9 2.5-2.5 2.5c-.6 0-1.8 1.1-2.5 2.5-.7 1.3-1.7 2.2-2.2 1.9-.4-.3-.8-.1-.8.4s-2.6 3.6-5.7 6.9c-7.4 7.8-13.2 14.3-12.7 14.3.2 0-.4.8-1.3 1.9-4.6 4.8-7.2 7.9-10.1 12-1.8 2.4-3.2 4-3.2 3.5-.1-.5-.8.3-1.6 1.8-.8 1.6-1.9 2.8-2.4 2.8-.6 0-1 .4-1 1 0 .5-.8 1.8-1.7 2.8-1 1-3.1 3.5-4.8 5.6-1.6 2.1-4.3 5.2-5.9 6.9-1.5 1.8-4 4.8-5.5 6.7-1.4 1.9-3.5 4.4-4.6 5.6-1.1 1.2-2.7 3.1-3.5 4.4-.8 1.2-2.4 3.1-3.4 4.1-1.1 1.1-1.7 1.9-1.3 1.9.4 0-.1.9-1 1.9-3 3.3-4.3 5-4.5 5.8 0 .5-.9 1.4-1.9 2.1-1.1.7-1.9 1.9-1.9 2.7 0 .7-.3 1.5-.7 1.7-1.1.4-8.6 9.8-7.9 9.8.3 0-.7 1.3-2.2 2.9-4.5 4.8-7.1 8.1-6.4 8.1.3 0-.5 1.2-1.9 2.7-1.4 1.6-4.5 5.5-6.9 8.8-4.7 6.4-4.7 6.4-8.5 11-1.4 1.6-2.8 3.8-3.1 4.8-.3.9-1 1.5-1.5 1.2-.5-.4-.9-.1-.9.4 0 2.2-1.5 1-2.9-2.2-.8-1.7-2.1-3.8-2.8-4.5-.7-.8-1.1-1.8-.8-2.3.4-.5.2-.9-.4-.9-.5 0-1.3-.9-1.6-2-.3-1.1-1.2-2.6-1.8-3.2-.7-.7-2.5-3.8-4.1-6.8-1.6-3-3.2-5.7-3.5-6-.3-.3-1.4-2.1-2.3-4-1.8-3.8-5-9.2-5.8-10-.9-.9-4.1-6.5-5.8-10.3-.9-2-2-3.7-2.4-3.7-.5 0-.8-.5-.8-1.1 0-.6-1.3-2.9-2.9-5.2-1.6-2.3-3-4.7-3.1-5.2-.2-.6-1-2.1-1.8-3.5-4.8-7.9-5.9-9.8-7.1-12.3-.8-1.5-1.8-2.7-2.3-2.7-.5 0-.7-.4-.3-.9.3-.5-.4-1.6-1.5-2.4-1.1-.7-1.8-1.6-1.5-1.9.4-.4-10-17.6-12.5-20.5-.5-.7-1-1.7-1-2.3 0-.5-.3-1-.8-1-.4 0-1.8-2.1-3.2-4.8-1.3-2.6-3.7-6.3-5.2-8.2-1.5-1.9-2.8-3.8-2.8-4.3 0-.8-1.1-2.3-4.2-5.8-1-1-1.8-2.4-1.8-2.9 0-.6-.5-1-1.1-1-.5 0-.8-.4-.5-.9.4-.5.3-1.1-.2-1.3-.4-.1-2.7-3.2-5.1-6.8-2.4-3.6-4.8-6.7-5.3-6.8-.4-.2-.8-1-.8-1.8s-.7-1.7-1.5-2c-.8-.4-1.5-1.2-1.5-1.9 0-.6-1.3-2.6-2.9-4.3-1.6-1.6-2.7-3.3-2.4-3.6.3-.3-.2-.8-1.1-1.2-.9-.3-1.6-1-1.6-1.6 0-.5-.6-1.5-1.3-2.2-.7-.8-2.9-3.2-4.8-5.6-1.8-2.3-4.1-5-4.9-6-.8-.9-2.6-3.2-4-5-1.4-1.8-4.2-5.2-6.2-7.4-2.1-2.3-3.8-4.4-3.8-4.9 0-.4-.7-.7-1.6-.7-.8 0-1.2-.5-.9-1 .3-.6-.1-1-.9-1-.9 0-1.6-.5-1.6-1 0-.6-.5-1-1.1-1-.7 0-2-1-3-2.2-1.1-1.1-1.9-1.8-1.9-1.4 0 .3-1.7-.4-3.7-1.7-4.9-3-13.4-7-15-7-.7 0-1.3-.4-1.3-.9s-.4-.6-1-.3c-.5.3-1 .1-1-.5s-.4-.9-1-.5c-.5.3-1.7.1-2.7-.4-3.2-1.7-8.8-3.6-9.7-3.3-.4.1-1.4-.2-2.2-.9-.7-.6-1.8-.8-2.3-.5-.5.4-1.2.2-1.5-.3-.4-.5-1.4-.8-2.4-.7-.9.2-1.9 0-2.2-.5-.3-.4-1.9-1-3.5-1.3-1.7-.2-3-.5-3-.6 0-.2-.9-.4-2-.6-1.1-.1-3.1-.6-4.5-.9-1.4-.4-3.6-.8-5-1-1.4-.1-2.5-.3-2.5-.5 0-.1-1.1-.3-2.5-.4-1.4 0-2.9-.4-3.5-.7-.5-.3-2.2-.5-3.7-.4-1.6 0-2.8-.3-2.8-.7 0-.4-.7-.5-1.5-.2-.8.4-1.5.2-1.5-.2 0-.5-1.7-.9-3.8-1-2-.1-5.3-.4-7.2-.9-1.9-.4-4.6-.9-6-1.2-1.4-.2-3.8-.6-5.5-.9-1.6-.3-5-.7-7.5-.9-2.5-.2-4.7-.4-5-.5-.3-.1-1.5-.1-2.7-.1-1.1.1-2.4-.3-2.8-.9-.3-.5-1.2-.7-1.8-.3-1.7 1-3.7 1.3-3.7.4 0-.4-1.9-.7-4.2-.8-2.4 0-7.2-.4-10.8-.8-3.6-.4-7.8-.8-9.5-.8-1.6 0-3.3-.5-3.7-1.1-.5-.8-.8-.7-.8.1 0 .7-.6 1-1.3.7-.8-.3-8.8-.6-17.8-.7-9-.1-16.9-.6-17.5-.9-.6-.4-1.4-.4-1.8 0-1.1 1-4 .9-4.8-.3-.5-.6-.8-.5-.8.2 0 .9-.7 1-2.3.4-1.4-.5-3-.5-4 0-1.2.7-1.7.6-1.7-.3 0-.8-.3-.9-.8-.3-.4.5-1.4 1-2.2 1-.8 0-1.8-.5-2.2-1-.5-.7-.8-.6-.8.1z"/></svg>